<svg width="63" height="35" viewBox="0 0 63 35" fill="none" xmlns="http://www.w3.org/2000/svg">
<path d="M14.8975 19.2443C11.3732 19.262 10.8032 21.4366 10.6132 23.2752L10.5268 24.0885H9.81843L9.73207 23.2752C9.54208 21.4366 8.95472 19.262 5.55141 19.2443C4.98134 18.042 4.73948 17.0696 4.73948 15.9735C4.73948 13.2332 6.93349 10.6696 10.1812 10.6696C13.429 10.6696 15.5885 13.2154 15.5885 15.9913C15.5885 17.0696 15.4848 18.042 14.8975 19.2443ZM10.1467 7.3458C4.79134 7.3458 0.40332 11.8365 0.40332 17.3348C0.40332 22.8509 4.79134 27.3415 10.1467 27.3415C15.5539 27.3415 19.9246 22.8509 19.9246 17.3348C19.9246 11.8365 15.5539 7.3458 10.1467 7.3458Z" fill="#29B24A"/>
<path d="M40.0505 19.2796H43.592C43.0391 20.6587 41.7953 21.3127 40.3614 21.3127C37.8393 21.3127 36.6646 19.315 36.6646 17.3349C36.6646 15.337 37.7701 13.3039 40.3442 13.3039C41.9163 13.3039 43.0909 14.0465 43.5401 15.3724H46.4596C45.9587 12.3846 43.4019 10.6697 40.3788 10.6697C36.6473 10.6697 33.8486 13.2685 33.8486 17.3702C33.8486 21.5249 36.8891 23.9824 40.3614 23.9824C43.782 23.9824 46.4596 21.7018 46.4596 18.1305V17.0873H40.0505V19.2796Z" fill="#403F41"/>
<path d="M60.0383 14.7006H62.906C62.5433 11.9425 60.5048 10.4928 57.6715 10.4928C54.8038 10.4928 52.8862 11.9956 52.8862 14.5768C52.8862 17.5116 55.3566 18.1657 56.6695 18.431C58.3625 18.7669 60.021 18.8023 60.021 20.2873C60.021 21.295 59.1918 21.7901 58.017 21.7901C56.5659 21.7901 55.5985 21.0475 55.3566 19.704H52.5234C52.6962 22.6034 54.752 24.1592 57.7752 24.1592C60.5738 24.1592 62.8714 22.8509 62.8714 20.0222C62.8714 16.9812 60.2283 16.4332 58.3798 16.1503C57.1187 15.9558 55.7367 15.779 55.7367 14.4177C55.7367 13.463 56.445 12.8796 57.637 12.8796C59.019 12.8796 59.8482 13.6752 60.0383 14.7006Z" fill="#403F41"/>
<path d="M50.9516 10.9348H48.2393V23.7526H50.9516V10.9348Z" fill="#403F41"/>
<path d="M27.6469 10.6696C24.5373 10.6696 22.2396 12.6674 22.2569 15.9912H25.0556C25.021 14.5415 25.9193 13.2155 27.5087 13.2155C28.8907 13.2155 29.7027 14.2056 29.7027 15.337C29.7027 16.4685 28.8907 17.105 27.3877 17.7946C25.3319 18.7315 23.8636 19.3326 22.3606 19.8631V23.7526H32.8295V21.1359H25.6425C25.6425 21.1359 25.6664 21.1283 25.6782 21.1247C26.9006 20.7456 27.819 20.3338 28.908 19.8454C31.2402 18.7846 32.5704 17.4586 32.5704 15.1956C32.5704 12.4199 30.5665 10.6696 27.6469 10.6696Z" fill="#403F41"/>
</svg>
