<svg width="100" height="100" viewBox="0 0 100 100" fill="none" xmlns="http://www.w3.org/2000/svg">
<mask id="mask0_108_41" style="mask-type:alpha" maskUnits="userSpaceOnUse" x="22" y="25" width="57" height="49">
<g opacity="0.79">
<path d="M78.5367 69.4948C78.8471 66.2977 78.6195 63.1624 78.3505 60.0066C78.2884 59.2021 78.2263 58.3977 78.185 57.5933C78.1022 56.4382 78.0815 55.3037 77.8539 54.1692C77.6263 53.0347 77.709 51.8797 77.7918 50.7246C77.8539 49.7964 77.5642 49.1157 76.902 48.435C74.6052 46.1454 72.0393 44.2065 69.3079 42.5151C68.9147 42.2676 68.5422 42.0201 68.1698 41.7313C66.1833 40.2462 64.052 38.988 61.7758 37.9773C61.5068 37.8535 61.2378 37.7504 61.0101 37.5854C58.5063 36.0178 55.7956 34.9039 53.1263 33.7076C51.864 33.13 50.5811 32.635 49.3189 32.1193C48.9464 31.9543 48.5739 31.8099 48.2015 31.6449C47.5807 31.3355 47.5186 31.2117 47.6428 30.5723C47.6635 30.4692 47.7048 30.3454 47.7255 30.2423C48.098 28.4684 47.3324 26.9833 45.5528 26.5501C44.3526 26.2613 43.2559 25.8488 42.2213 25.23C41.9316 25.065 41.5592 24.9825 41.2281 25.0031C40.2555 25.0856 39.283 25.2094 38.3311 25.395C37.3172 25.6013 36.5102 26.1582 36.0549 27.0864C35.1652 28.8603 35.0824 28.8603 33.1166 28.7572C31.5647 28.6747 30.5093 29.5204 29.5161 30.4898C29.0195 30.9848 28.6677 31.5624 28.378 32.2018C28.1297 32.7381 27.7572 33.13 27.1571 33.3569C26.2674 33.6869 25.5845 34.2645 25.1707 35.172C25.0672 35.4196 24.8603 35.6877 24.6119 35.8115C23.7636 36.224 23.5773 37.0078 23.4532 37.8123C23.3497 38.4723 23.1428 39.0292 22.6462 39.4624C21.8391 40.1637 21.7771 41.6488 22.522 42.4533C23.867 43.8971 23.9498 45.6917 24.0533 47.4449C24.1981 49.9614 24.1153 52.4985 24.1774 55.0149C24.2188 56.9126 24.3429 58.7896 24.405 60.6666C24.4257 61.306 24.4257 61.9249 24.4257 62.5643C24.4257 63.2037 24.4464 63.8225 24.5913 64.4413C24.881 65.6995 25.481 66.5452 26.8054 67.0196C29.0816 67.8034 31.337 68.6904 33.696 69.2679C35.2065 69.6392 36.6757 70.1136 38.1656 70.5262C40.2762 71.1243 42.4282 71.5163 44.5803 71.8669C48.2222 72.4651 51.8847 72.7951 55.5473 73.2283C58.4029 73.5583 61.2792 73.7439 64.1347 73.9915C64.4244 74.0121 64.7141 73.9914 65.0038 73.9708C68.4388 73.8677 71.8737 73.7852 75.3294 73.8264C75.7846 73.8264 76.2606 73.8264 76.7158 73.7645C78.1643 73.5789 78.4954 73.2283 78.5781 71.805C78.5988 71.4131 78.5781 71.0006 78.5781 70.6087C78.5367 70.258 78.5367 69.8661 78.5367 69.4948ZM65.935 57.1807C65.128 57.1807 64.321 57.1395 63.5139 57.1807C60.6791 57.3664 57.8856 56.8301 55.0714 56.6032C53.8712 56.5207 52.6917 56.2319 51.4709 56.1081C49.174 55.8812 46.9185 55.3862 44.663 54.9118C41.7247 54.293 38.807 53.6536 35.8894 52.9935C33.9236 52.5397 31.9578 52.0653 30.0334 51.5084C28.7091 51.1371 27.3848 50.7452 26.1846 50.0026C25.688 49.6932 25.3983 49.322 25.3569 48.765C25.2534 47.5068 25.1913 46.2486 25.1086 44.9903C25.0879 44.7428 25.2327 44.5159 25.481 44.4953C26.7433 44.4541 27.9641 44.2065 29.2471 44.5366C31.5853 45.1347 33.9236 45.7123 36.3239 46.0629C40.1521 46.6199 43.9388 47.2593 47.7048 48.1875C48.5532 48.3937 49.4016 48.5381 50.25 48.6825C52.5883 49.0744 54.9059 49.4663 57.2441 49.7964C59.3547 50.0851 61.4654 50.4358 63.5967 50.4977C66.0177 50.5802 68.4181 50.9102 70.8391 50.9308C72.391 50.9515 73.9223 51.2402 75.4742 50.9927C75.9502 50.9102 76.2606 51.1577 76.2813 51.6528C76.3433 53.0348 76.6123 54.3755 76.7365 55.7575C76.8606 57.057 76.6123 57.4489 75.2052 57.4076C75.0397 57.4076 74.8535 57.3664 74.6879 57.387C73.4257 57.5108 72.1634 57.1395 70.9012 57.2426C69.2665 57.4282 67.5904 57.3664 65.935 57.1807ZM31.606 43.8353C32.082 43.4021 32.3923 43.1546 32.682 42.8864C33.0338 42.5564 33.1994 42.1645 33.2821 41.6901C33.4477 40.7412 33.4684 40.6794 34.4616 40.7619C35.1859 40.8238 35.7032 40.5556 36.1377 40.0812C36.4895 39.7099 36.8826 39.2974 37.0275 38.823C37.3379 37.8742 37.9586 37.4204 38.8898 37.3172C38.9519 37.3172 38.9933 37.276 39.0554 37.2553C40.0693 36.9253 41.0004 36.5128 41.1867 35.2752C41.2281 35.0277 41.3936 34.8626 41.6212 34.7595C42.3248 34.4707 42.9456 34.0995 43.2766 33.3363C43.4008 33.0475 43.7319 32.965 44.0216 33.13C44.7665 33.5219 45.4494 33.46 46.1322 33.0062C46.7116 32.6143 47.291 32.6144 47.9325 32.8619C50.2707 33.8313 52.6297 34.7389 54.9472 35.7496C56.7889 36.554 58.5063 37.5854 60.2859 38.5136C63.307 40.0812 66.2661 41.7107 69.0182 43.7115C70.4046 44.7222 71.853 45.6917 73.2187 46.723C73.8602 47.1974 74.4189 47.7956 74.9983 48.3525C75.3294 48.6619 75.4122 49.0332 75.2259 49.4457C75.0397 49.8583 74.6879 50.0232 74.2534 50.0439C74.0878 50.0439 73.9016 50.0439 73.7361 50.0233C70.9219 49.8376 68.1077 49.6107 65.2935 49.4663C62.5828 49.322 59.8927 49.095 57.2234 48.7031C52.8987 48.0637 48.5739 47.383 44.2906 46.4342C42.0558 45.9392 39.7796 45.5266 37.4827 45.2379C35.8273 45.0316 34.2133 44.5984 32.5786 44.2272C32.3303 44.1859 32.082 44.0415 31.606 43.8353ZM70.9012 67.7828C68.5215 67.9685 65.6039 67.5559 62.6655 67.3497C60.5963 67.1846 58.5477 66.8752 56.4785 66.8134C54.223 66.7515 52.0089 66.4421 49.7948 66.1121C46.7116 65.6583 43.6698 65.0189 40.6487 64.2969C36.2205 63.245 31.7923 62.2755 27.4675 60.8523C27.2399 60.7904 27.033 60.7285 26.8054 60.6254C26.0397 60.316 25.5845 59.8003 25.5845 58.934C25.5638 58.0058 25.5017 57.0982 25.5224 56.1906C25.5431 55.3656 25.7707 55.2006 26.5984 55.3449C26.8881 55.3862 27.1571 55.4481 27.4468 55.5306C29.0402 56.0256 30.6542 56.4381 32.3303 56.6238C33.1787 56.7063 34.0271 56.9332 34.8341 57.2632C35.31 57.4695 35.8066 57.6139 36.3239 57.717C38.2277 58.1295 40.0486 58.8515 41.9937 59.1815C43.5249 59.4496 45.0148 59.9653 46.5461 60.1509C48.4912 60.3778 50.3949 60.8729 52.3193 61.0998C54.1402 61.3061 55.9819 61.5329 57.8235 61.5948C59.4375 61.6361 61.0515 61.6773 62.6449 61.7805C64.0106 61.863 65.397 61.8836 66.7834 61.8011C67.9422 61.7392 69.0802 61.6154 70.239 61.6773C72.2462 61.8011 74.2534 61.9455 76.2606 62.0899C76.7158 62.1311 77.0262 62.358 77.109 62.8118C77.378 64.235 77.4814 65.6583 77.0469 67.0815C76.9434 67.4528 76.6951 67.6797 76.3226 67.7416C75.9915 67.8034 75.6398 67.8241 75.288 67.8241C74.0051 67.7828 72.7221 67.7828 70.9012 67.7828ZM66.8248 72.6095C62.5828 72.8776 57.5338 72.3826 52.5055 71.8463C51.7606 71.7638 51.0156 71.6606 50.2707 71.5781C48.5118 71.3512 46.7323 71.145 44.9734 70.8975C41.5385 70.423 38.2069 69.5774 34.8548 68.7317C32.2889 68.0922 29.7851 67.2465 27.3434 66.1739C26.7433 65.9058 26.1639 65.6376 25.9777 64.957C25.7294 64.07 25.6052 63.1625 25.8535 62.2343C25.957 61.8424 26.1846 61.6979 26.6398 61.7805C26.9709 61.8423 27.3227 61.9248 27.6538 62.0073C30.0541 62.6468 32.4337 63.3068 34.8341 63.905C36.8412 64.4001 38.9105 64.7301 40.8763 65.3076C44.6423 66.4215 48.5532 66.834 52.3814 67.5559C55.03 68.051 57.7407 68.1335 60.4515 68.216C60.8446 68.2366 61.2585 68.2366 61.6516 68.2779C63.2449 68.4635 64.8383 68.711 66.4523 68.8554C69.5976 69.1029 72.7635 69.2679 75.9295 69.0204C76.7158 68.9585 76.9848 69.2061 77.0262 69.9693C77.0262 70.093 77.0262 70.1961 77.0262 70.3199C77.109 72.527 76.9848 72.6301 74.7293 72.6301C72.3704 72.6095 70.0114 72.6095 66.8248 72.6095ZM27.1778 43.1752C26.4743 43.2165 25.8121 43.0308 25.1293 42.9071C24.5913 42.8039 24.1981 42.4739 23.8463 42.082C23.4118 41.5869 23.3704 41.0713 23.8463 40.5556C24.2395 40.1224 24.612 39.6893 24.6327 39.0705C24.674 38.0392 25.0465 37.1935 25.8742 36.5541C26.1018 36.389 26.2467 36.1209 26.3915 35.8734C26.764 35.2546 27.2606 34.8008 27.9642 34.6358C28.7091 34.4707 29.1436 33.9963 29.3919 33.295C29.4747 33.0888 29.6195 32.9031 29.7437 32.6968C30.9232 30.7373 32.2475 30.036 34.4616 30.4279C35.3721 30.5929 35.8894 30.2835 36.3032 29.5616C36.4688 29.2728 36.655 28.9634 36.8205 28.6746C37.462 27.4577 38.4139 26.7564 39.8003 26.6532C40.1521 26.6326 40.4831 26.5501 40.8142 26.5088C41.3936 26.4263 41.9316 26.5089 42.4489 26.8595C43.1525 27.3546 43.9595 27.6846 44.8286 27.8083C45.3459 27.8702 45.8218 28.0971 46.1943 28.489C46.4012 28.6953 46.6288 29.0459 46.4633 29.2522C45.9667 29.871 46.0701 30.6754 45.7804 31.3355C45.6149 31.7068 45.2217 31.913 44.7872 31.8718C44.6217 31.8512 44.4561 31.8099 44.2906 31.748C43.2559 31.3355 42.4903 31.6861 41.9523 32.5937C41.704 32.9856 41.5178 33.4188 41.0211 33.5425C40.1727 33.7694 39.821 34.347 39.6968 35.1514C39.6347 35.6877 39.2623 35.9352 38.7863 36.0796C38.5587 36.1415 38.3518 36.2447 38.1242 36.2447C36.8619 36.2653 36.1377 36.7809 35.8687 38.1011C35.6618 39.0911 34.8755 39.6068 33.7788 39.483C33.4891 39.4418 33.1994 39.483 32.9097 39.5036C31.9578 39.5862 31.6888 39.8749 31.7302 40.8031C31.7302 40.9682 31.7923 41.1332 31.813 41.3188C31.8957 41.8551 31.6267 42.1851 31.1508 42.3914C29.9299 42.8864 28.5642 43.0721 27.1778 43.1752ZM64.7762 60.5222C62.9552 60.4191 60.2652 60.4397 57.5545 60.2953C54.7817 60.1303 52.071 59.7797 49.3396 59.3671C44.4354 58.6246 39.6347 57.4489 34.8341 56.2731C32.2682 55.6337 29.7023 54.953 27.1364 54.3342C25.4397 53.9217 25.2534 53.7154 25.4396 52.0241C25.4603 51.9003 25.4604 51.7971 25.481 51.694C25.5638 51.3227 25.8949 51.1165 26.2673 51.3021C27.4468 51.9415 28.7091 52.2303 29.992 52.5397C32.2889 53.0966 34.5444 53.7361 36.8205 54.3342C39.821 55.118 42.8835 55.675 45.9253 56.2938C48.8015 56.8713 51.6985 57.3663 54.5955 57.7789C57.7821 58.2327 60.9688 58.6452 64.2175 58.5421C65.4177 58.5008 66.6385 58.5421 67.8387 58.7277C68.6871 58.8515 69.5562 58.8927 70.4253 58.7071C72.391 58.3152 74.3155 58.8515 76.2606 58.934C76.5916 58.9546 76.7572 59.1815 76.7986 59.4909C76.8193 59.7178 76.8606 59.9447 76.8399 60.1716C76.7986 60.5635 76.571 60.811 76.1778 60.8316C75.8881 60.8523 75.5984 60.8523 75.3087 60.8316C74.1706 60.7491 73.0118 60.646 71.8737 60.5429C69.8045 60.316 67.7352 60.5841 64.7762 60.5222Z" fill="#3A3A3A"/>
<path d="M54.5127 44.9907C54.8024 44.97 54.9679 44.9494 55.1542 44.9288C56.1681 44.7638 56.4578 44.0212 55.8163 43.1962C55.4646 42.7424 55.0921 42.3092 54.6576 41.9173C53.6229 40.9891 52.4228 40.5147 51.0157 40.9272C50.0017 41.2366 49.7948 41.7936 50.2293 42.7424C50.726 43.7737 51.6778 44.2069 52.6297 44.5575C53.2505 44.805 53.954 44.8669 54.5127 44.9907ZM54.1816 43.8768C53.3953 43.8356 52.6297 43.6293 51.9261 43.2168C51.8848 43.1962 51.8434 43.1549 51.7813 43.1136C51.5951 42.9486 51.533 42.7424 51.595 42.5155C51.6571 42.2473 51.8847 42.1442 52.1124 42.1442C53.1056 42.1442 53.8298 42.6599 54.4299 43.3818C54.492 43.4437 54.492 43.6087 54.4506 43.6912C54.4299 43.7737 54.3058 43.815 54.1816 43.8768Z" fill="#3A3A3A"/>
<path d="M65.9555 47.7338C66.4522 47.7132 66.9488 47.61 67.404 47.3419C67.7972 47.0944 67.9834 46.455 67.6523 46.1456C66.5349 45.1142 65.5831 43.856 64.0518 43.361C63.5345 43.1959 63.0172 43.1341 62.5619 43.4641C61.5066 44.2067 61.4446 44.8048 61.9826 45.7743C62.8723 47.3419 64.3829 47.5482 65.9555 47.7338ZM65.5003 46.7025C65.1899 46.6406 64.7554 46.5581 64.3001 46.4756C63.5759 46.3518 63.2862 45.8362 63.0793 45.2174C62.9551 44.8255 63.3069 44.4335 63.7207 44.4335C64.1967 44.4542 64.6105 44.6604 64.9209 44.9698C65.2727 45.3205 65.6038 45.733 65.9141 46.1249C65.9762 46.2074 66.0176 46.3312 65.9969 46.4343C65.9762 46.62 65.8107 46.6612 65.5003 46.7025Z" fill="#3A3A3A"/>
<path d="M50.1465 37.7504C50.5396 37.6473 50.9328 37.5648 51.3052 37.441C51.4915 37.3792 51.5329 37.111 51.4087 37.0285C50.7672 36.6779 50.5396 36.0384 50.1465 35.4815C49.3601 34.347 47.4978 34.1408 46.4425 34.9658C46.1114 35.234 45.9873 35.7909 46.2976 36.0178C47.3737 36.8841 48.5738 37.5442 49.9602 37.7504C50.043 37.7711 50.0844 37.7504 50.1465 37.7504ZM47.7668 35.7497C47.8289 35.6465 47.8703 35.5021 47.9324 35.4815C48.4911 35.399 48.9049 35.6465 49.1532 36.1209C49.1739 36.1622 49.0704 36.3685 49.0291 36.3685C48.4911 36.4303 48.0979 36.1416 47.7668 35.7497Z" fill="#3A3A3A"/>
<path d="M43.256 42.7833C42.8836 42.3914 42.6353 42.082 42.3456 41.8345C41.5179 41.0713 40.4626 41.0094 39.5521 41.6694C39.1796 41.9376 39.0969 42.3501 39.3452 42.7008C39.8625 43.3814 40.5246 43.7734 41.4144 43.5258C42.0145 43.3402 42.656 43.3196 43.256 42.7833ZM40.9592 42.3914L40.9385 42.4945L40.835 42.4326L40.9592 42.3914Z" fill="#3A3A3A"/>
<path d="M31.7716 32.7586C31.8543 32.8205 31.9578 32.903 32.0406 32.9236C32.144 32.9442 32.2682 32.9236 32.3716 32.8617C32.9924 32.4904 33.5925 32.346 34.3374 32.5729C35.0824 32.7998 35.7652 32.9855 36.1791 33.7074C36.2618 33.8518 36.4067 33.9549 36.5309 34.0787C36.7378 34.2437 37.1309 34.0581 37.193 33.7693C37.2551 33.4599 37.2137 33.1918 37.0689 32.9442C36.7792 32.4286 36.3446 32.0573 35.8066 31.8304C34.9375 31.4797 34.0684 31.2528 33.1166 31.4385C32.5165 31.5622 32.0406 31.8304 31.7923 32.4286C31.7509 32.5111 31.7716 32.6348 31.7716 32.7586Z" fill="#3A3A3A"/>
<path d="M30.2611 37.0898C29.9093 37.0898 29.5782 37.2136 29.4127 37.523C29.3506 37.6468 29.3506 37.853 29.392 37.9974C29.4127 38.0593 29.5575 38.1624 29.6403 38.1624C29.9093 38.1418 30.199 38.1005 30.468 38.0593C30.6956 38.018 30.9026 37.9561 30.9439 37.6674C30.9853 37.3786 30.6335 37.0898 30.2611 37.0898Z" fill="#3A3A3A"/>
<path d="M41.9938 28.3242C41.8282 28.3861 41.642 28.4067 41.4971 28.4892C41.4144 28.5305 41.3109 28.6336 41.3109 28.7368C41.3109 28.8193 41.3937 28.9636 41.4558 28.9843C41.8489 29.0668 42.2421 29.108 42.6145 29.1699C42.8628 29.2112 43.1319 29.4381 43.3802 29.1287C43.5457 28.9018 43.1318 28.4892 42.6352 28.4067C42.4283 28.3655 42.2007 28.3448 41.9938 28.3242Z" fill="#3A3A3A"/>
</g>
</mask>
<g mask="url(#mask0_108_41)">
<rect x="14.314" y="16.3525" width="71.098" height="66.2941" fill="#12335F"/>
</g>
</svg>
