<svg width="26" height="26" viewBox="0 0 26 26" fill="none" xmlns="http://www.w3.org/2000/svg">
<path fill-rule="evenodd" clip-rule="evenodd" d="M0.820312 1.62507C0.820312 1.18062 1.18062 0.820312 1.62507 0.820312H4.06257C4.43523 0.820312 4.75914 1.07616 4.84545 1.43867L5.47203 4.07031H24.3751C24.6203 4.07031 24.8522 4.18214 25.0049 4.37407C25.1575 4.56599 25.2144 4.81707 25.1592 5.05603L22.7217 15.6185C22.6375 15.9837 22.3123 16.2423 21.9376 16.2423H8.37013L8.76072 17.8828H21.9376C22.382 17.8828 22.7423 18.2431 22.7423 18.6876C22.7423 19.132 22.382 19.4923 21.9376 19.4923H8.12507C7.75242 19.4923 7.42851 19.2365 7.3422 18.874L6.62271 15.8521C6.58005 15.7812 6.54784 15.7027 6.52842 15.6185L5.31031 10.34L3.42693 2.42984H1.62507C1.18062 2.42984 0.820312 2.06953 0.820312 1.62507ZM7.98691 14.6328H21.2974L23.3634 5.67984H5.8867L6.87734 9.9726L7.98691 14.6328Z" fill="#12335F"/>
<path fill-rule="evenodd" clip-rule="evenodd" d="M20.3126 21.1173C19.8596 21.1173 19.4923 21.4846 19.4923 21.9376C19.4923 22.3906 19.8596 22.7578 20.3126 22.7578C20.7656 22.7578 21.1328 22.3906 21.1328 21.9376C21.1328 21.4846 20.7656 21.1173 20.3126 21.1173ZM17.8828 21.9376C17.8828 20.5957 18.9707 19.5078 20.3126 19.5078C21.6545 19.5078 22.7423 20.5957 22.7423 21.9376C22.7423 23.2795 21.6545 24.3673 20.3126 24.3673C18.9707 24.3673 17.8828 23.2795 17.8828 21.9376Z" fill="#12335F"/>
<path fill-rule="evenodd" clip-rule="evenodd" d="M9.75007 21.1173C9.29707 21.1173 8.92984 21.4846 8.92984 21.9376C8.92984 22.3906 9.29707 22.7578 9.75007 22.7578C10.2031 22.7578 10.5703 22.3906 10.5703 21.9376C10.5703 21.4846 10.2031 21.1173 9.75007 21.1173ZM7.32031 21.9376C7.32031 20.5957 8.40815 19.5078 9.75007 19.5078C11.092 19.5078 12.1798 20.5957 12.1798 21.9376C12.1798 23.2795 11.092 24.3673 9.75007 24.3673C8.40815 24.3673 7.32031 23.2795 7.32031 21.9376Z" fill="#12335F"/>
</svg>
