<svg width="110" height="99" viewBox="0 0 110 99" fill="none" xmlns="http://www.w3.org/2000/svg">
<g filter="url(#filter0_d_134_274)">
<rect x="31" y="25" width="48" height="48" rx="24" fill="#12335F"/>
<path d="M61.7188 54.0938H50.5625L47.2812 40.3125H45.3125M47.9375 42.9375H63.6875L61.7188 51.4688H49.9062L47.9375 42.9375Z" stroke="white" stroke-width="1.3" stroke-linecap="round" stroke-linejoin="round"/>
<path d="M60.4062 58.0312C61.1311 58.0312 61.7188 57.4436 61.7188 56.7188C61.7188 55.9939 61.1311 55.4062 60.4062 55.4062C59.6814 55.4062 59.0938 55.9939 59.0938 56.7188C59.0938 57.4436 59.6814 58.0312 60.4062 58.0312Z" stroke="white" stroke-width="1.3" stroke-linecap="round" stroke-linejoin="round"/>
<path d="M51.875 58.0312C52.5999 58.0312 53.1875 57.4436 53.1875 56.7188C53.1875 55.9939 52.5999 55.4062 51.875 55.4062C51.1501 55.4062 50.5625 55.9939 50.5625 56.7188C50.5625 57.4436 51.1501 58.0312 51.875 58.0312Z" stroke="white" stroke-width="1.3" stroke-linecap="round" stroke-linejoin="round"/>
</g>
<defs>
<filter id="filter0_d_134_274" x="0" y="-2" width="110" height="110" filterUnits="userSpaceOnUse" color-interpolation-filters="sRGB">
<feFlood flood-opacity="0" result="BackgroundImageFix"/>
<feColorMatrix in="SourceAlpha" type="matrix" values="0 0 0 0 0 0 0 0 0 0 0 0 0 0 0 0 0 0 127 0" result="hardAlpha"/>
<feMorphology radius="1" operator="dilate" in="SourceAlpha" result="effect1_dropShadow_134_274"/>
<feOffset dy="4"/>
<feGaussianBlur stdDeviation="15"/>
<feComposite in2="hardAlpha" operator="out"/>
<feColorMatrix type="matrix" values="0 0 0 0 0.168627 0 0 0 0 0.247059 0 0 0 0 0.396078 0 0 0 0.08 0"/>
<feBlend mode="normal" in2="BackgroundImageFix" result="effect1_dropShadow_134_274"/>
<feBlend mode="normal" in="SourceGraphic" in2="effect1_dropShadow_134_274" result="shape"/>
</filter>
</defs>
</svg>
