<svg width="48" height="48" viewBox="0 0 48 48" fill="none" xmlns="http://www.w3.org/2000/svg">
<circle cx="24" cy="24" r="24" fill="#12335F"/>
<path d="M31.4062 28.7812H20.25L16.9688 15H15M17.625 17.625H33.375L31.4062 26.1562H19.5938L17.625 17.625Z" stroke="white" stroke-width="1.3" stroke-linecap="round" stroke-linejoin="round"/>
<path d="M30.0938 32.7188C30.8186 32.7188 31.4062 32.1311 31.4062 31.4062C31.4062 30.6814 30.8186 30.0938 30.0938 30.0938C29.3689 30.0938 28.7812 30.6814 28.7812 31.4062C28.7812 32.1311 29.3689 32.7188 30.0938 32.7188Z" stroke="white" stroke-width="1.3" stroke-linecap="round" stroke-linejoin="round"/>
<path d="M21.5625 32.7188C22.2874 32.7188 22.875 32.1311 22.875 31.4062C22.875 30.6814 22.2874 30.0938 21.5625 30.0938C20.8376 30.0938 20.25 30.6814 20.25 31.4062C20.25 32.1311 20.8376 32.7188 21.5625 32.7188Z" stroke="white" stroke-width="1.3" stroke-linecap="round" stroke-linejoin="round"/>
</svg>
