<svg width="130" height="120" viewBox="0 0 130 120" fill="none" xmlns="http://www.w3.org/2000/svg">
<path d="M125.45 73.5572C125.45 78.8903 98.3322 83.2138 64.8808 83.2138C31.4293 83.2138 4.31152 78.8903 4.31152 73.5572M125.45 73.5572V103.446C125.45 108.779 99.0361 113.563 64.8808 113.563C30.7251 113.563 4.31152 108.779 4.31152 103.446V73.5572M125.45 73.5572C125.45 71.4473 121.205 69.4953 114.004 67.9068M4.31152 73.5572C4.31152 71.4473 8.5559 69.4953 15.7577 67.9068M114.004 67.9068V45.906M114.004 67.9068V69.0303C114.004 72.7682 92.5819 76.1207 64.8808 76.1207C37.1796 76.1207 15.7577 72.7682 15.7577 69.0303V67.9068M15.7577 67.9068V45.906M114.004 45.906C114.004 49.6439 92.0107 52.6741 64.8808 52.6741C37.7508 52.6741 15.7577 49.6439 15.7577 45.906M114.004 45.906C114.004 44.2529 109.703 42.7383 102.558 41.5629M15.7577 45.906C15.7577 44.2529 20.059 42.7383 27.2038 41.5629M102.558 41.5629V25.2051M102.558 41.5629V42.4001C102.558 45.1796 86.1272 47.6724 64.8808 47.6724C43.6343 47.6724 27.2038 45.1796 27.2038 42.4001V41.5629M27.2038 41.5629V25.2051M102.558 25.2051C102.558 27.9846 85.6891 30.2378 64.8808 30.2378C44.0724 30.2378 27.2038 27.9846 27.2038 25.2051M102.558 25.2051C102.558 23.9201 98.9521 22.7476 93.0192 21.8582M27.2038 25.2051C27.2038 23.9201 30.8092 22.7476 36.7423 21.8582M93.0192 21.8582V9.5926M93.0192 21.8582V22.0442C93.0192 24.0569 80.7484 25.862 64.8808 25.862C49.0131 25.862 36.7423 24.0569 36.7423 22.0442V21.8582M36.7423 21.8582V9.5926M93.0192 9.5926C93.0192 11.6053 80.4212 13.2369 64.8808 13.2369C49.3403 13.2369 36.7423 11.6053 36.7423 9.5926M93.0192 9.5926C93.0192 7.57987 80.4212 5.94824 64.8808 5.94824C49.3403 5.94824 36.7423 7.57987 36.7423 9.5926" stroke="#94A3D1" stroke-width="2"/>
</svg>
