<svg width="100" height="100" viewBox="0 0 100 100" fill="none" xmlns="http://www.w3.org/2000/svg">
<mask id="mask0_108_40" style="mask-type:alpha" maskUnits="userSpaceOnUse" x="28" y="19" width="43" height="61">
<path d="M70.7198 43.4541C70.6341 43.4541 70.5484 43.4541 70.4627 43.5428C70.377 43.5428 70.2912 43.4541 70.1198 43.5428C65.4914 45.4935 60.7773 47.3556 56.2346 49.661C52.2061 51.6118 48.1777 54.0059 45.0921 57.464C44.3207 58.3507 43.635 59.3261 42.9493 60.3015C42.435 61.0995 41.9207 62.0749 41.6636 63.0503C41.1493 63.3163 40.6351 63.5823 40.1208 63.7596C38.9209 64.2916 37.7209 64.8236 36.5209 65.4443C36.5209 65.3557 36.5209 65.267 36.4352 65.1783C37.7209 61.1882 39.3494 57.2867 41.2351 53.5625C42.2636 51.6118 43.2921 49.661 44.4064 47.7989C45.3492 47.7103 46.292 47.4443 47.1492 47.1782C48.3491 46.8236 49.4634 46.3802 50.5776 45.8482C52.8061 44.7841 54.9489 43.3654 56.7488 41.6807C60.6058 38.1339 63.1772 33.523 64.4629 28.3802C64.8057 26.8728 65.0628 25.3654 65.1485 23.858C65.2343 23.1486 65.2343 22.3506 65.2343 21.6412C65.2343 20.8432 65.2343 20.0451 65.0629 19.3358C64.9771 18.9811 64.3771 18.8038 64.2914 19.3358C59.663 20.4885 55.3775 22.8826 51.8633 26.2521C49.5491 28.5575 47.5777 31.2176 46.1206 34.1437L46.0349 34.2324C45.2635 35.8285 44.5778 37.6019 44.1493 39.3753C43.3779 42.3014 43.035 45.2275 43.1207 48.2423V48.331C42.435 49.4837 41.835 50.6364 41.2351 51.8778C39.2637 55.7793 37.5495 59.7695 36.2638 63.937C35.921 62.5182 35.6638 61.0995 35.4067 59.6808C38.1495 55.6019 39.8637 50.9024 40.4637 45.9369C40.6351 44.4295 40.7208 42.8334 40.6351 41.326C40.6351 41.2374 40.6351 41.1487 40.7208 41.1487C40.7208 41.06 40.7208 40.9713 40.6351 40.9713C40.4637 37.6019 39.8637 34.3211 38.6637 31.2176C38.2352 30.0649 37.7209 28.9122 37.1209 27.7595C36.8638 27.2274 36.5209 26.6954 36.2638 26.1634C36.0067 25.72 35.6638 25.2767 35.1496 25.188C34.8067 25.0994 34.5496 25.188 34.3781 25.454C34.3781 25.3654 34.121 25.2767 34.0353 25.3654C33.2639 26.2521 32.6639 27.4048 32.0639 28.4688C31.464 29.5329 30.9497 30.6856 30.5211 31.8383C29.5783 34.1437 28.9783 36.5378 28.5498 39.0206C28.3784 39.996 28.2926 41.06 28.2069 42.0354C28.1212 42.0354 28.1212 42.1241 28.1212 42.2127V42.3014C28.0355 43.7201 27.9498 45.0502 28.0355 46.4689C28.1212 49.0403 28.5498 51.6118 29.5783 53.9172C30.6068 56.2226 32.2354 58.1734 34.3781 59.4148C34.4639 59.4148 34.5496 59.5034 34.5496 59.4148C34.4639 59.5921 34.5496 59.7694 34.6353 59.8581C34.8924 61.1882 35.2353 62.4295 35.5781 63.7596C35.6638 64.203 35.8352 64.5576 35.921 65.001C34.6353 69.2572 33.6925 73.6907 33.3496 78.1242C33.2639 78.7449 33.2639 79.2769 33.2639 79.8976C33.2639 79.9863 33.4353 80.075 33.4353 79.8976C33.7782 77.5922 34.0353 75.3754 34.4639 73.07C34.8924 70.7646 35.4924 68.5478 36.0924 66.331V66.2424C36.0924 66.2424 36.1781 66.2424 36.2638 66.2424C37.5495 65.8877 38.7494 65.267 39.9494 64.735C40.3779 64.5576 40.8065 64.2916 41.2351 64.1143C44.1492 64.3803 47.0634 64.469 49.9776 64.2916C52.6347 64.1143 55.3775 63.6709 57.8631 62.6955C60.1773 61.8088 62.4058 60.5675 64.2057 58.8827C66.0914 57.1093 67.4628 54.9812 68.4056 52.5871C69.5198 49.8384 70.2912 46.9122 70.8912 44.0748C71.1484 43.7201 70.8912 43.5428 70.7198 43.4541ZM51.1776 44.7842C49.9776 45.4049 48.7777 45.9369 47.492 46.2915C46.6349 46.5576 45.7778 46.7349 44.9207 47.0009C45.9492 45.3162 47.0634 43.6314 48.2634 41.9467C49.1205 40.7053 49.9776 39.5526 50.8347 38.3999C52.7204 38.1339 54.5203 37.6019 56.3203 37.0698C57.8631 36.6265 59.4059 36.0058 60.9487 35.3851C58.6345 39.4639 55.206 42.6561 51.1776 44.7842ZM64.2914 21.4639C64.2914 21.3752 64.3771 21.3752 64.3771 21.2865C64.3771 21.2865 64.3771 21.3752 64.2914 21.4639C64.3771 22.0845 64.3771 22.7052 64.3771 23.3259C64.3771 24.656 64.2057 25.8974 63.9486 27.2274C63.52 29.7989 62.6629 32.2816 61.463 34.4984C61.3773 34.5871 61.3772 34.6757 61.2915 34.8531C59.663 35.5624 57.9488 36.1831 56.2346 36.7152C54.5203 37.2472 52.8918 37.6019 51.1776 37.9565C52.8918 35.7398 54.6918 33.523 56.5774 31.3949C58.0345 29.7989 59.4916 28.2028 60.863 26.6068C62.2344 25.0107 63.4343 23.3259 64.2914 21.4639ZM63.6915 20.4885C62.5772 23.4146 60.4344 25.8087 58.3773 28.0255C58.3773 27.7595 58.4631 27.4935 58.5488 27.1388C58.7202 26.4294 58.8916 25.72 59.0631 25.0993C59.4059 23.858 60.0059 22.7939 60.5201 21.5525C61.463 21.1979 62.5772 20.7545 63.6915 20.4885ZM55.1203 24.7447C55.806 24.2126 56.4917 23.7693 57.2631 23.3259C58.1202 22.7939 59.063 22.3506 60.0059 21.9072C59.4059 22.8826 58.9773 24.0353 58.7202 25.0993C58.5488 25.72 58.3774 26.3407 58.2059 27.0501C58.1202 27.5821 58.0345 28.1141 57.9488 28.5575C57.5202 29.0008 57.1774 29.4442 56.7488 29.8875C55.8917 30.8629 54.9489 31.927 54.0918 32.991C54.0918 32.9023 54.0918 32.725 54.0918 32.6363C54.1775 32.193 54.1775 31.8383 54.2632 31.3949C54.3489 30.5969 54.5203 29.7102 54.606 28.9122C54.6918 28.1142 54.7775 27.3161 54.9489 26.4294C55.0346 25.8087 55.0346 25.2767 55.1203 24.7447ZM47.492 33.4343C49.2919 30.1535 51.8633 27.2274 54.7775 25.0107C54.6918 25.454 54.606 25.8087 54.606 26.2521C54.5203 27.0501 54.3489 27.9368 54.2632 28.7348C54.1775 29.5329 54.0061 30.3309 53.9204 31.2176C53.8346 31.6609 53.8346 32.0156 53.7489 32.459C53.6632 32.8137 53.5775 33.1683 53.5775 33.523C51.7776 35.7398 49.9776 38.0452 48.2634 40.3506C47.8348 40.9713 47.4063 41.5034 47.0634 42.1241C46.7206 39.996 46.5492 37.7792 46.3777 35.6511C46.7206 34.8531 47.0634 34.1437 47.492 33.4343ZM46.0349 36.4492C46.1206 38.5772 46.3777 40.6166 46.6349 42.7447C45.6921 44.1635 44.7492 45.5822 43.8921 47.0896C43.9778 43.4541 44.6635 39.8186 46.0349 36.4492ZM37.5495 30.3309C39.178 34.2324 39.9494 38.3999 39.8637 42.5674C39.8637 42.6561 39.8637 42.6561 39.778 42.7447C39.6065 43.2768 39.4351 43.8975 39.178 44.4295C38.7494 45.4935 38.3209 46.5576 37.8066 47.5329C36.7781 49.4837 35.5781 51.2571 34.2067 52.9418C34.121 52.0551 33.9496 51.1684 33.8639 50.1931C33.6067 47.3556 33.4353 44.4295 33.4353 41.592C34.5496 39.8186 35.4067 37.8679 36.0924 35.8285C36.4352 34.7644 36.6924 33.789 36.9495 32.725C37.2066 31.8383 37.3781 31.1289 37.5495 30.3309ZM34.4639 26.9614C34.5496 26.6954 34.5496 25.8087 34.9781 25.8974C35.4067 25.986 35.7495 26.7841 35.921 27.1388C36.3495 27.8481 36.6924 28.5575 37.0352 29.2669C36.9495 30.3309 36.8638 31.395 36.6066 32.459C36.3495 33.523 36.0924 34.5871 35.7495 35.6511C35.1496 37.5132 34.2924 39.1979 33.4353 40.8827C33.4353 38.7546 33.521 36.7152 33.6067 34.5871C33.8639 32.1043 34.121 29.5329 34.4639 26.9614ZM30.9497 32.8137C31.3782 31.5723 31.9782 30.3309 32.4925 29.0895C32.9211 28.2028 33.4353 27.4048 33.8639 26.5181C33.7782 26.7841 33.7782 27.0501 33.6925 27.3161C33.521 28.6462 33.3496 29.9762 33.1782 31.3949C32.6639 36.8038 32.5782 42.2127 32.9211 47.6216C33.0068 48.331 33.0068 49.0403 33.0925 49.661C32.7496 49.3063 32.3211 48.9517 32.0639 48.5083C31.5497 47.8876 31.0354 47.1783 30.6068 46.5576C29.9212 45.4935 29.3212 44.3408 28.7212 43.0994C28.9783 39.5526 29.7497 36.0945 30.9497 32.8137ZM28.8069 47.0009C28.7212 46.0255 28.7212 44.9615 28.8069 43.9861C29.2355 44.9615 29.7497 45.9369 30.3497 46.8236C30.7783 47.5329 31.2925 48.2423 31.8068 48.863C32.2354 49.395 32.7496 50.0157 33.2639 50.5477C33.521 53.2078 33.9496 55.868 34.3781 58.5281C30.6068 56.0453 29.064 51.3458 28.8069 47.0009ZM34.2924 53.2965C35.8352 51.6118 37.1209 49.661 38.1495 47.6216C38.6637 46.5576 39.178 45.4935 39.6065 44.4295C39.6923 44.2521 39.6923 44.0748 39.778 43.8975C39.778 44.0748 39.778 44.1635 39.778 44.3408C39.4351 49.0403 37.978 53.6512 35.5781 57.73C35.4067 57.996 35.321 58.1734 35.1496 58.4394C34.8067 56.7547 34.5496 55.0699 34.2924 53.2965ZM62.6629 47.7103C64.4629 46.9122 66.3485 46.2029 68.1484 45.4048C67.8913 45.6709 67.5485 45.9369 67.2913 46.2029C66.2628 47.0896 65.2343 47.8876 64.2057 48.7743C62.4915 50.1931 60.6916 51.5231 58.8916 52.7645C58.8916 52.6758 58.9773 52.5871 58.9773 52.4985C59.1488 51.9664 59.4059 51.4344 59.663 50.9911C60.0916 50.1931 60.5201 49.3063 60.9487 48.5083C61.463 48.1536 62.0629 47.8876 62.6629 47.7103ZM50.1491 54.0945C53.3204 51.8778 56.8345 50.193 60.4344 48.6857C60.0059 49.3063 59.663 50.0157 59.3202 50.7251C59.063 51.2571 58.8916 51.7891 58.6345 52.3211C58.5488 52.5872 58.3773 52.9418 58.2916 53.2078C58.1202 53.2965 57.9488 53.4738 57.7774 53.5625C54.3489 55.9566 50.749 58.1734 47.0634 60.2128C47.4063 59.1487 47.8348 58.1734 48.3491 57.198C48.692 56.5773 48.9491 55.9566 49.3776 55.4246C49.5491 54.8926 49.8062 54.5379 50.1491 54.0945ZM43.3778 60.9221C43.8921 60.0354 44.5778 59.2374 45.1778 58.4394C46.3777 57.0207 47.7491 55.7793 49.2062 54.7152C48.7777 55.4246 48.3491 56.134 48.0063 56.8433C47.4063 57.996 46.9777 59.1488 46.5492 60.3901C45.7778 60.8335 44.9207 61.2768 44.1493 61.7202C43.635 61.9862 43.035 62.2522 42.5207 62.5182C42.7779 61.9862 43.1207 61.4542 43.3778 60.9221ZM50.9205 63.4049C48.0063 63.6709 45.1778 63.5823 42.2636 63.6709C42.7779 63.4049 43.2064 63.2276 43.7207 62.9616C45.3492 62.1635 47.0634 61.2768 48.692 60.3015C50.5776 60.9222 52.549 61.1882 54.5203 61.3655C55.5489 61.4542 56.5774 61.4542 57.6059 61.4542C58.0345 61.4542 58.4631 61.4542 58.9773 61.3655C56.3203 62.5182 53.5775 63.1389 50.9205 63.4049ZM64.3771 57.6414C63.0915 58.9714 61.6344 60.0355 60.0059 60.8335C59.9201 60.8335 59.8344 60.8335 59.8344 60.8335C59.5773 60.8335 59.3202 60.9221 59.0631 60.9221C58.5488 60.9221 58.0345 61.0108 57.5202 61.0108C56.4917 61.0108 55.3774 61.0108 54.3489 60.9221C52.549 60.7448 50.749 60.3901 49.0348 60.0354C49.5491 59.6808 50.149 59.4148 50.6633 59.0601C51.6061 58.4394 52.6347 57.9074 53.5775 57.2867C53.5775 57.2867 53.5775 57.2867 53.6632 57.2867C57.7774 57.6414 61.9772 57.0207 65.92 55.7793C65.4057 56.4886 64.9771 57.1093 64.3771 57.6414ZM68.2342 51.2571C67.7199 52.6758 67.0342 54.0059 66.2628 55.2473C62.3201 56.5773 58.2059 57.198 54.0061 57.0207C56.4917 55.4246 58.8059 53.8285 61.2058 52.0551C62.4915 51.8778 63.7772 51.6118 64.9771 51.4344C65.6628 51.3458 66.3485 51.1684 67.0342 51.0798C67.4628 50.9911 67.8913 50.9024 68.3199 50.9024C68.3199 50.9911 68.2342 51.1684 68.2342 51.2571ZM68.4913 50.4591C67.977 50.5477 67.4628 50.6364 66.9485 50.7251C66.2628 50.8137 65.5771 50.9911 64.8914 51.0798C63.8629 51.2571 62.8343 51.4344 61.7201 51.7004C62.4058 51.1684 63.1772 50.6364 63.8629 50.0157C65.0628 49.129 66.1771 48.1536 67.2913 47.1782C67.8913 46.6462 68.4056 46.2029 69.0056 45.6709C69.2627 45.4049 69.6055 45.1388 69.8627 44.7842C69.5198 46.7349 69.0913 48.597 68.4913 50.4591Z" fill="#3A3A3A"/>
</mask>
<g mask="url(#mask0_108_40)">
<rect x="22" y="15" width="55" height="69" fill="#12335F"/>
</g>
</svg>
