<svg width="141" height="23" viewBox="0 0 141 23" fill="none" xmlns="http://www.w3.org/2000/svg">
<path d="M19.4096 4.4292C19.9243 5.12928 20.3601 5.88985 20.708 6.69565L10.8379 14.3499L6.71289 11.6296V8.357L10.8379 11.0773L19.4096 4.4292Z" fill="#21A038"/>
<path d="M2.50327 11.3985C2.50327 11.2517 2.50667 11.1058 2.51348 10.9608L0.0136147 10.8319C0.00510597 11.0199 3.02097e-06 11.2097 3.02097e-06 11.4012C-0.0010606 12.8977 0.278746 14.3797 0.82338 15.7621C1.36801 17.1446 2.16674 18.4004 3.17376 19.4573L4.94697 17.5928C4.17181 16.7806 3.55687 15.8152 3.13749 14.7522C2.71812 13.6892 2.50258 12.5495 2.50327 11.3985Z" fill="url(#paint0_linear_354_3049)"/>
<path d="M10.836 2.63277C10.9755 2.63277 11.1141 2.63815 11.252 2.64531L11.3771 0.0145334C11.1979 0.00558217 11.0174 0.00110709 10.836 0.00110709C9.41273 -0.000718751 8.00327 0.293216 6.68839 0.866033C5.3735 1.43885 4.17912 2.27927 3.17383 3.33904L4.94704 5.20447C5.71911 4.38873 6.63685 3.74157 7.64748 3.30023C8.65812 2.85889 9.74167 2.63205 10.836 2.63277Z" fill="url(#paint1_linear_354_3049)"/>
<path d="M10.8349 20.1646C10.6954 20.1646 10.5567 20.1646 10.4181 20.153L10.293 22.7829C10.4728 22.7924 10.6535 22.7972 10.8349 22.7972C12.2576 22.7988 13.6664 22.5047 14.9805 21.9317C16.2947 21.3587 17.4883 20.5182 18.4929 19.4584L16.723 17.5939C15.9508 18.4092 15.0332 19.056 14.0228 19.4972C13.0123 19.9383 11.929 20.1652 10.8349 20.1646Z" fill="url(#paint2_linear_354_3049)"/>
<path d="M15.5323 4.16235L17.639 2.52875C15.7135 0.888393 13.3098 -0.00455344 10.832 1.74616e-05V2.63258C12.5099 2.63039 14.1488 3.16381 15.5323 4.16235Z" fill="url(#paint3_linear_354_3049)"/>
<path d="M21.6712 11.3986C21.6725 10.7138 21.6156 10.0301 21.501 9.35596L19.1688 11.1641C19.1688 11.242 19.1688 11.3199 19.1688 11.3986C19.1694 12.6234 18.9253 13.8347 18.4525 14.9539C17.9796 16.0731 17.2884 17.0752 16.4238 17.8954L18.106 19.8513C19.2301 18.7838 20.1283 17.4797 20.7425 16.0236C21.3567 14.5674 21.6731 12.9917 21.6712 11.3986Z" fill="#21A038"/>
<path d="M10.8356 20.1645C9.67125 20.165 8.51982 19.9081 7.45581 19.4107C6.39185 18.9133 5.43903 18.1863 4.65908 17.2769L2.80078 19.0456C3.81541 20.2283 5.055 21.1734 6.43918 21.8197C7.82335 22.4659 9.32117 22.7989 10.8356 22.7971V20.1645Z" fill="url(#paint4_linear_354_3049)"/>
<path d="M5.24819 4.90177L3.56686 2.94592C2.4425 4.01325 1.54394 5.31728 0.929459 6.77344C0.314989 8.22959 -0.00167526 9.80537 6.66501e-06 11.3986H2.50327C2.50276 10.1739 2.74684 8.9626 3.21969 7.8434C3.69255 6.72424 4.38364 5.72204 5.24819 4.90177Z" fill="url(#paint5_linear_354_3049)"/>
<path d="M62.5297 6.51864L65.63 4.14294H55.2539V18.4188H65.63V16.0431H58.2146V12.3863H64.5403V10.0107H58.2146V6.51864H62.5297Z" fill="#21A038"/>
<path d="M48.2723 9.70432H44.6699V6.51768H50.4192L53.5176 4.13477H41.7109V18.4107H47.8912C51.3562 18.4107 53.3448 16.7772 53.3448 13.9286C53.3448 11.2034 51.5436 9.70432 48.2723 9.70432ZM47.758 16.0342H44.6699V12.0785H47.758C49.6321 12.0785 50.5107 12.7414 50.5107 14.0564C50.5107 15.3713 49.5758 16.0342 47.758 16.0342Z" fill="#21A038"/>
<path d="M73.2574 4.14087H67.6094V18.4167H70.5697V14.3726H73.2574C76.861 14.3726 79.0901 12.4004 79.0901 9.24911C79.0901 6.09793 76.861 4.14087 73.2574 4.14087ZM73.195 11.9951H70.5697V6.51838H73.195C75.0904 6.51838 76.1365 7.4915 76.1365 9.25783C76.1365 11.0242 75.0904 11.9951 73.195 11.9951Z" fill="#21A038"/>
<path d="M37.2679 15.0477C36.5032 15.4784 35.6464 15.7014 34.7768 15.6961C32.1741 15.6961 30.2859 13.7635 30.2859 11.1023C30.2859 8.44097 32.1741 6.50416 34.7768 6.50416C35.7154 6.48758 36.6345 6.7836 37.3999 7.34903L39.4707 5.7628L39.3306 5.6593C38.1227 4.55466 36.5086 3.9696 34.6611 3.9696C32.6572 3.9696 30.8402 4.67083 29.5429 5.94655C28.8869 6.6034 28.3681 7.39384 28.0188 8.26854C27.6695 9.14324 27.4972 10.0834 27.5127 11.0304C27.4988 11.9871 27.6703 12.9368 28.0171 13.823C28.3638 14.7092 28.8786 15.5136 29.5307 16.1883C30.8341 17.5147 32.6471 18.2455 34.6367 18.2455C36.7157 18.2455 38.5328 17.4914 39.7631 16.1186L37.9095 14.6823L37.2679 15.0477Z" fill="#21A038"/>
<path d="M90.8275 9.70432H87.2266V6.51768H94.9648V4.13477H84.2656V18.4107H90.4381C93.9026 18.4107 95.8914 16.7772 95.8914 13.9286C95.8995 11.2034 94.0987 9.70432 90.8275 9.70432ZM90.3132 16.0342H87.2266V12.0785H90.3132C92.1871 12.0785 93.0654 12.7414 93.0654 14.0564C93.0654 15.3713 92.1388 16.0342 90.3132 16.0342Z" fill="#21A038"/>
<path d="M129.55 18.3903H126.549V4.11438H129.55V10.1103H131.184L135.595 4.11438H138.996L133.764 10.9056L139.84 18.3903H135.858L131.392 12.7757H129.55V18.3903Z" fill="#21A038"/>
<path d="M106.797 15.6772H100.448L99.3717 18.4494H96.1777L102.133 4.17358H105.326L111.184 18.4494H107.873L106.797 15.6772ZM105.803 13.0906L103.641 7.54611L101.468 13.0906H105.803Z" fill="#21A038"/>
<path d="M115.224 4.17358V10.1349H121.434V4.17358H124.529V18.4494H121.434V12.8243H115.224V18.4494H112.129V4.17358H115.224Z" fill="#21A038"/>
<defs>
<linearGradient id="paint0_linear_354_3049" x1="3.68003" y1="19.1288" x2="0.687591" y2="10.906" gradientUnits="userSpaceOnUse">
<stop offset="0.14" stop-color="#F1E813"/>
<stop offset="0.3" stop-color="#E6E418"/>
<stop offset="0.58" stop-color="#C9DA26"/>
<stop offset="0.89" stop-color="#A2CC39"/>
</linearGradient>
<linearGradient id="paint1_linear_354_3049" x1="3.88856" y1="3.8045" x2="11.0201" y2="1.22112" gradientUnits="userSpaceOnUse">
<stop offset="0.06" stop-color="#0FA7DF"/>
<stop offset="0.54" stop-color="#0098F8"/>
<stop offset="0.92" stop-color="#0290EA"/>
</linearGradient>
<linearGradient id="paint2_linear_354_3049" x1="10.1279" y1="21.2084" x2="18.1312" y2="19.4897" gradientUnits="userSpaceOnUse">
<stop offset="0.12" stop-color="#A2CC39"/>
<stop offset="0.28" stop-color="#86C239"/>
<stop offset="0.87" stop-color="#219F38"/>
</linearGradient>
<linearGradient id="paint3_linear_354_3049" x1="10.3113" y1="0.881716" x2="17.1793" y2="2.89636" gradientUnits="userSpaceOnUse">
<stop offset="0.06" stop-color="#0290EA"/>
<stop offset="0.79" stop-color="#0C89CA"/>
</linearGradient>
<linearGradient id="paint4_linear_354_3049" x1="3.42872" y1="18.7252" x2="10.9302" y2="21.3901" gradientUnits="userSpaceOnUse">
<stop offset="0.13" stop-color="#F1E813"/>
<stop offset="0.3" stop-color="#EAE616"/>
<stop offset="0.53" stop-color="#D8DF1F"/>
<stop offset="0.8" stop-color="#BAD52D"/>
<stop offset="0.98" stop-color="#A2CC39"/>
</linearGradient>
<linearGradient id="paint5_linear_354_3049" x1="0.932561" y1="11.7172" x2="4.18099" y2="3.68468" gradientUnits="userSpaceOnUse">
<stop offset="0.07" stop-color="#A2CC39"/>
<stop offset="0.26" stop-color="#81C45E"/>
<stop offset="0.92" stop-color="#0FA7DF"/>
</linearGradient>
</defs>
</svg>
