<svg width="130" height="120" viewBox="0 0 130 120" fill="none" xmlns="http://www.w3.org/2000/svg">
<path d="M126.039 72.9153C126.039 78.331 98.7107 82.7214 64.9999 82.7214C31.2891 82.7214 3.96118 78.331 3.96118 72.9153M126.039 72.9153V103.267M126.039 72.9153C126.039 70.7727 121.761 68.7905 114.504 67.1774M3.96118 72.9153V103.267M3.96118 72.9153C3.96118 70.7727 8.23846 68.7905 15.4961 67.1774M126.039 103.267C126.039 108.683 99.42 113.541 64.9999 113.541C30.5795 113.541 3.96118 108.683 3.96118 103.267M126.039 103.267V72.4483M114.504 67.1774V44.8358M114.504 67.1774V68.3183C114.504 72.1141 92.9158 75.5185 64.9999 75.5185C37.0841 75.5185 15.4961 72.1141 15.4961 68.3183V67.1774M3.96118 103.267V72.4483M15.4961 67.1774V44.8358M114.504 44.8358C114.504 48.6317 92.3402 51.7087 64.9999 51.7087C37.6597 51.7087 15.4961 48.6317 15.4961 44.8358M114.504 44.8358C114.504 41.04 92.3402 37.9629 64.9999 37.9629C37.6597 37.9629 15.4961 41.04 15.4961 44.8358" stroke="#94A3D1" stroke-width="2"/>
</svg>
