<svg width="30" height="36" viewBox="0 0 30 36" fill="none" xmlns="http://www.w3.org/2000/svg">
<rect width="30" height="36" fill="white"/>
<path d="M23.5714 7.81172C25.0507 7.81172 26.25 6.55453 26.25 5.00133C26.25 3.44812 23.5714 0 23.5714 0C23.5714 0 20.8929 3.5093 20.8929 5.0625C20.8929 6.6157 22.0915 7.81172 23.5714 7.81172ZM15 7.81172C16.4792 7.81172 17.6786 6.55453 17.6786 5.00133C17.6786 3.44812 15 0 15 0C15 0 12.3214 3.5093 12.3214 5.0625C12.3214 6.6157 13.5201 7.81172 15 7.81172ZM25.654 15.6867L25.7143 11.25C25.7143 10.6287 25.2346 10.125 24.6429 10.125H22.5C21.9107 10.125 21.4286 10.6313 21.4286 11.25V15.75H17.1429V11.25C17.1429 10.6287 16.6631 10.125 16.0714 10.125H13.9286C13.3393 10.125 12.8571 10.6313 12.8571 11.25V15.75H8.57143V11.25C8.57143 10.6287 8.0917 10.125 7.5 10.125H5.35714C4.76518 10.125 4.28571 10.6313 4.28571 11.25V15.7479C1.91853 15.7479 0 17.7623 0 20.1846V25.0151C0.657187 25.4441 1.43237 25.8117 2.14286 25.8117C3.525 25.8117 5.1596 24.4245 5.67187 23.8901C6.0904 23.4528 6.76607 23.4528 7.1846 23.8901C7.64062 24.4898 9.33482 25.8117 10.7143 25.8117C12.0938 25.8117 13.731 24.4245 14.2433 23.8901C14.6618 23.4528 15.3375 23.4528 15.756 23.8901C16.2121 24.4898 17.9062 25.8117 19.2857 25.8117C20.6652 25.8117 22.3025 24.4245 22.8147 23.8901C23.2333 23.4528 23.9089 23.4528 24.3275 23.8901C24.7835 24.4898 26.4777 25.8117 27.8571 25.8117C28.5676 25.8117 29.3431 25.4442 30 25.0151V20.1867C30 17.7609 28.0781 15.6867 25.654 15.6867ZM23.5714 26.2477C22.6507 27.0176 21.0248 28.1222 19.2857 28.1222C17.5467 28.1222 15.9208 27.0183 15 26.2477C14.0792 27.0176 12.4533 28.1222 10.7143 28.1222C8.97522 28.1222 7.34933 27.0183 6.42857 26.2477C5.50781 27.0176 3.88192 28.1222 2.14286 28.1222C1.38817 28.1222 0.663616 27.9027 0 27.6035V33.7474C0 34.9945 0.959598 36 2.14286 36H27.8571C29.0404 36 30 34.9924 30 33.75V27.6061C29.3364 27.9053 28.6118 28.1248 27.8571 28.1248C26.1161 28.0617 24.4955 27.0211 23.5714 26.2477ZM6.42857 7.81172C7.90781 7.81172 9.10714 6.55453 9.10714 5.00133C9.10714 3.44812 6.42857 0 6.42857 0C6.42857 0 3.75 3.5093 3.75 5.0625C3.75 6.6157 4.94933 7.81172 6.42857 7.81172Z" fill="#12335F"/>
</svg>
