<svg width="117" height="111" viewBox="0 0 117 111" fill="none" xmlns="http://www.w3.org/2000/svg">
<path d="M55.6663 3.19788C56.6002 0.511196 60.3998 0.511196 61.3337 3.19788L72.7469 36.0321C73.4335 38.0075 75.277 39.3468 77.3678 39.3894L112.122 40.0977C114.966 40.1556 116.14 43.7693 113.873 45.4877L86.1729 66.4886C84.5064 67.752 83.8022 69.9191 84.4078 71.9208L94.4738 105.193C95.2975 107.915 92.2236 110.149 89.8888 108.524L61.3559 88.669C59.6393 87.4745 57.3607 87.4745 55.6441 88.669L27.1112 108.524C24.7764 110.149 21.7025 107.915 22.5262 105.193L32.5922 71.9208C33.1978 69.9191 32.4936 67.752 30.8271 66.4886L3.12679 45.4877C0.860188 43.7693 2.03433 40.1556 4.8781 40.0977L39.6322 39.3894C41.723 39.3468 43.5665 38.0075 44.2531 36.0321L55.6663 3.19788Z" stroke="#9CA7C9" stroke-width="2"/>
</svg>
