<svg width="24" height="24" viewBox="0 0 24 24" fill="none" xmlns="http://www.w3.org/2000/svg">
<path d="M18.5507 6.1236C18.5507 6.1236 20.1233 5.5176 19.9922 6.98931C19.9486 7.59532 19.5554 9.71632 19.2496 12.0105L18.2012 18.8064C18.2012 18.8064 18.1139 19.8019 17.3275 19.9751C16.5412 20.1482 15.3618 19.3691 15.1433 19.1959C14.9686 19.0661 11.867 17.1182 10.7749 16.1659C10.4691 15.9062 10.1196 15.3868 10.8186 14.7808L15.4054 10.4522C15.9296 9.93276 16.4538 8.72076 14.2696 10.1925L8.15388 14.3046C8.15388 14.3046 7.45493 14.7375 6.14444 14.3479L3.30496 13.4822C3.30496 13.4822 2.25654 12.8329 4.04759 12.1836C8.416 10.1492 13.7891 8.07144 18.5507 6.1236Z" fill="#12335F"/>
</svg>
