<svg width="46" height="46" viewBox="0 0 46 46" fill="none" xmlns="http://www.w3.org/2000/svg">
<path fill-rule="evenodd" clip-rule="evenodd" d="M31.5646 17.7505C31.696 17.3182 31.5646 17 30.9352 17H28.8571C28.3283 17 28.0844 17.2747 27.9522 17.5779C27.9522 17.5779 26.8953 20.1081 25.3983 21.7516C24.9138 22.2282 24.6937 22.3794 24.4293 22.3794C24.2971 22.3794 24.0984 22.2282 24.0984 21.7951V17.7505C24.0984 17.2312 23.9527 17 23.5125 17H20.2445C19.9144 17 19.7157 17.2407 19.7157 17.4695C19.7157 17.9611 20.4646 18.0751 20.5414 19.4589V22.4657C20.5414 23.1251 20.4203 23.2447 20.1559 23.2447C19.4513 23.2447 17.7373 20.7026 16.72 17.794C16.5229 17.228 16.3234 17 15.7922 17H13.7125C13.1187 17 13 17.2747 13 17.5779C13 18.1178 13.7046 20.8 16.2815 24.3475C17.9994 26.77 20.4179 28.0833 22.6211 28.0833C23.9424 28.0833 24.1055 27.792 24.1055 27.2893V25.4582C24.1055 24.8747 24.2306 24.7583 24.6494 24.7583C24.9581 24.7583 25.4862 24.9103 26.7196 26.078C28.1287 27.4627 28.3607 28.0833 29.154 28.0833H31.2321C31.8258 28.0833 32.1235 27.792 31.9525 27.2157C31.7641 26.6425 31.0912 25.8105 30.199 24.8233C29.7145 24.2612 28.9877 23.6555 28.7668 23.3523C28.4589 22.9636 28.5468 22.7902 28.7668 22.4443C28.7668 22.4443 31.3002 18.9404 31.5638 17.7505H31.5646Z" fill="#9B9B9B"/>
</svg>
