<svg width="130" height="120" viewBox="0 0 130 120" fill="none" xmlns="http://www.w3.org/2000/svg">
<path d="M125.45 73.0276C125.45 78.4288 98.3322 82.8076 64.8808 82.8076C31.4293 82.8076 4.31152 78.4288 4.31152 73.0276M125.45 73.0276V103.299C125.45 108.7 99.0361 113.545 64.8808 113.545C30.7251 113.545 4.31152 108.7 4.31152 103.299V73.0276M125.45 73.0276C125.45 70.8907 121.205 68.9138 114.004 67.305M4.31152 73.0276C4.31152 70.8907 8.5559 68.9138 15.7577 67.305M114.004 67.305V45.023M114.004 67.305V68.4428C114.004 72.2285 92.5819 75.6238 64.8808 75.6238C37.1796 75.6238 15.7577 72.2285 15.7577 68.4428V67.305M15.7577 67.305V45.023M114.004 45.023C114.004 48.8087 92.0107 51.8775 64.8808 51.8775C37.7508 51.8775 15.7577 48.8087 15.7577 45.023M114.004 45.023C114.004 43.3487 109.703 41.8148 102.558 40.6244M15.7577 45.023C15.7577 43.3487 20.059 41.8148 27.2038 40.6244M102.558 40.6244V24.0575M102.558 40.6244V41.4722C102.558 44.2872 86.1272 46.8119 64.8808 46.8119C43.6343 46.8119 27.2038 44.2872 27.2038 41.4722V40.6244M27.2038 40.6244V24.0575M102.558 24.0575C102.558 26.8725 85.6891 29.1545 64.8808 29.1545C44.0724 29.1545 27.2038 26.8725 27.2038 24.0575M102.558 24.0575C102.558 21.2425 85.6891 18.9604 64.8808 18.9604C44.0724 18.9604 27.2038 21.2425 27.2038 24.0575" stroke="#94A3D1" stroke-width="2"/>
</svg>
