<svg width="100" height="100" viewBox="0 0 100 100" fill="none" xmlns="http://www.w3.org/2000/svg">
<path fill-rule="evenodd" clip-rule="evenodd" d="M77.6828 47.2568C77.1884 49.2343 76.1997 50.7174 75.2109 52.2005C75.2109 52.6949 74.7165 53.1893 74.2222 53.1893C74.2222 52.6949 74.7165 52.2005 74.7165 51.7062C75.2109 51.2118 75.2109 50.7174 75.7053 50.2231C76.694 49.2343 77.1884 48.2456 77.6828 47.2568Z" fill="#12335F"/>
<path fill-rule="evenodd" clip-rule="evenodd" d="M24.2922 61.5957C25.7753 61.5957 27.7528 63.0788 27.7528 64.5619C27.7528 67.0338 25.7753 68.0225 23.7978 67.5282C22.809 67.0338 21.8203 66.045 21.3259 65.5507C21.3259 63.5732 22.3147 61.5957 24.2922 61.5957ZM24.2922 62.5844C24.2922 64.0676 23.7978 65.5507 24.2922 66.5394C27.2584 67.5282 27.7527 63.0788 25.2809 62.5844C25.2809 63.0788 24.7865 64.5619 24.7865 65.5507C24.7865 66.045 24.7865 66.5394 24.2922 66.5394C23.7978 65.0563 24.7865 63.5732 24.2922 62.5844C24.7865 62.5844 24.7865 62.5844 24.2922 62.5844ZM23.3034 65.0563C23.3034 64.0676 23.7978 63.5732 23.3034 63.0788C23.3034 63.5732 22.809 64.5619 23.3034 65.0563ZM23.7978 66.5394C23.7978 65.5507 24.2922 64.5619 23.7978 63.5732C23.7978 64.5619 23.3034 65.5507 23.7978 66.5394ZM22.809 64.5619C23.3034 64.5619 23.3034 63.5732 22.809 63.5732C22.809 64.0676 22.3147 64.5619 22.809 64.5619Z" fill="#12335F"/>
<path fill-rule="evenodd" clip-rule="evenodd" d="M65.3245 40.3368C67.302 39.8424 70.2682 39.8424 73.2345 39.8424C74.2232 39.8424 75.7063 40.3368 76.6951 40.3368C78.6725 40.3368 79.6613 40.8311 80.65 41.3255C82.1332 42.3142 83.1219 44.2917 83.6163 46.2692C83.6163 46.7636 84.1106 47.7523 84.1106 48.2467C84.605 49.2355 87.0769 50.2242 88.56 51.2129C89.0544 51.7073 90.0431 51.7073 91.0318 52.2017C92.0206 52.696 93.0093 53.1904 93.0093 53.6848C93.5037 54.1792 93.0093 56.1566 93.0093 56.651C93.0093 58.6285 93.5037 60.606 93.5037 62.5835C93.5037 63.5722 93.9981 64.561 93.5037 65.5497C93.5037 66.0441 93.0093 66.5384 92.5149 66.5384C91.5262 67.0328 89.0543 67.0328 86.5825 67.0328C86.0881 67.0328 85.5938 67.0328 85.0994 67.0328C84.605 67.0328 83.6163 66.5384 83.6163 67.0328C83.1219 67.0328 82.6275 68.0216 82.6275 68.5159C82.1332 69.0103 81.6388 69.5047 81.6388 69.999C80.65 70.9878 79.6613 71.4822 78.1782 71.9765C77.1894 71.9765 75.7063 71.9765 74.7176 71.4822C71.7514 70.9878 69.7739 69.0103 68.2908 66.5384C66.3133 67.0328 63.8414 66.0441 63.3471 64.561C62.8527 65.0553 62.3583 65.5497 61.3696 66.0441C60.8752 66.0441 60.3808 66.0441 59.8865 66.5384C56.4259 67.0328 50.9878 67.0328 47.0328 67.0328C42.0891 66.5384 36.651 67.0328 32.2017 67.0328C31.7073 67.5272 31.7073 68.0215 31.2129 69.0103C30.2242 70.4934 28.2467 72.4709 26.2692 72.9653C24.7861 73.4596 22.8086 72.4709 21.3255 71.9765C18.8537 70.9878 17.3705 69.0103 16.3818 67.0328C13.4156 67.0328 10.4493 66.5384 9.4606 64.561C8.47186 62.5835 7.97749 59.1229 7.48312 56.1566C7.48312 54.6735 6.98874 53.1904 6.98874 51.7073C6.49437 50.2242 6.49437 48.7411 6.49437 47.258C6.49437 44.7861 6.98874 41.8199 6.49437 39.348C6.49437 38.3593 6 37.3705 6 36.3818C6 34.8987 6 33.4156 6.49437 31.9325C6.98874 29.4606 7.48311 27.4831 10.4493 26.9887C14.4043 26 19.348 26.4944 23.7974 26C25.7748 26 27.7523 26 29.7298 26C35.6623 26 41.1003 26 47.0328 26C49.0103 26 50.9878 26 52.4709 26C54.4484 26 56.4259 26 57.909 26C59.8865 26 60.8752 26.4944 62.3583 27.4831C63.347 28.4719 64.3358 29.4606 64.8302 30.9437C65.3245 32.4268 65.3245 34.4043 65.3245 35.8874C64.8302 36.8762 65.3245 38.3593 65.3245 40.3368ZM51.9765 65.0553C54.4484 65.0553 57.4146 65.0553 59.8865 64.561C60.3808 64.561 60.8752 64.561 60.8752 64.561C61.8639 64.0666 62.3583 63.0778 62.8527 61.5947C63.347 57.1454 63.3471 51.7073 63.8414 47.258C63.8414 46.2692 63.8414 44.7861 63.8414 43.7974C63.8414 41.3255 64.3358 39.348 63.8414 36.8762C63.8414 35.8874 63.8414 34.4043 63.8414 33.4156C63.8414 32.4268 63.8414 31.4381 63.3471 30.4493C62.8527 29.4606 61.8639 27.9775 61.3696 27.4831C60.3808 26.9887 58.8977 26.4944 57.4146 26.4944C53.954 26 49.5047 26.4944 45.5497 26.4944C41.5947 26.4944 37.6398 26.4944 33.6848 26.4944C32.2017 26.4944 30.7186 26.4944 29.2354 26.4944C25.7748 26.4944 22.8086 26.4944 19.8424 26.4944C17.8649 26.4944 15.8874 26.4944 13.9099 26.4944C12.9212 26.4944 11.4381 26.9887 10.4493 26.9887C9.46059 26.9887 8.47185 27.4831 7.97748 27.9775C7.48311 28.9662 6.98874 29.955 6.98874 31.4381C6.49437 33.9099 6.49437 35 7.48312 37.8649C7.48312 40.3368 7.48312 42.7308 7.97748 46.5C8.47185 48.9719 8.32399 51.0338 8.81836 54C8.81836 55.4831 9.95497 57.1454 9.95497 58.6285C10.4493 60.1116 10.4493 61.5947 10.9437 62.0891C11.9325 63.5722 14.4043 64.0666 16.8762 63.5722C16.8762 63.0778 16.8762 62.5835 17.3705 62.0891C16.8762 62.0891 16.8762 63.0778 16.3818 63.0778C16.8762 62.5835 16.8762 62.0891 17.3705 61.5947C17.8649 61.1004 17.8649 60.606 18.3593 60.1116C19.348 58.6285 21.8199 57.6398 24.2917 57.1454C26.2692 57.1454 27.7523 57.6398 28.7411 58.6285C30.0832 59.9706 31.3184 61 31.7073 62.5835C31.7073 63.0778 31.7073 63.0778 31.7073 63.5722C39.1229 65.0553 45.5497 65.0553 51.9765 65.0553ZM83.6163 48.7411C83.1219 48.2467 83.1219 47.258 82.6275 46.7636C81.6388 44.7861 81.1444 42.3142 78.6726 41.8199C77.6838 41.8199 76.6951 41.8199 75.7063 41.3255C74.7176 41.3255 73.7288 40.8311 73.2345 40.8311C71.257 40.8311 70.2682 40.8311 68.2908 40.8311C66.8077 40.8311 65.3245 40.8311 64.8302 41.8199C64.8302 42.3142 64.8302 43.303 64.8302 44.2917C64.8302 47.7523 64.3358 51.2129 64.3358 54.6735C64.3358 57.1454 64.3358 59.6172 63.8414 61.5947C63.8414 62.0891 63.8414 62.0891 63.8414 62.5835C63.8414 63.0778 64.3358 64.0666 64.8302 64.561C65.3245 65.0553 66.8076 65.0553 67.7964 65.0553C67.7964 64.0666 68.2908 63.0778 68.2908 62.0891C68.2908 61.5947 68.7851 61.1004 68.7851 60.606C69.7739 59.1229 72.2457 57.6398 74.7176 57.6398C76.6951 57.6398 77.6838 58.1341 78.6726 58.6285C80.1557 59.6172 81.6388 60.606 82.1331 62.5835C83.1219 62.0891 83.6163 60.606 84.1106 59.6172C84.1106 59.1229 84.605 58.6285 85.0994 58.6285C85.0994 59.1229 84.605 59.6172 84.1106 60.1116C83.6163 61.1004 83.1219 62.0891 82.6275 62.5835C82.6275 63.0778 82.6275 63.0778 83.1219 63.5722C84.1106 62.5835 85.0994 61.1004 86.0881 59.6172C86.5825 59.1229 86.5825 58.6285 87.0769 58.6285C87.0769 59.1229 86.5825 59.6172 86.5825 59.6172C85.5937 61.1004 84.605 62.5835 83.6163 63.5722C83.6163 64.0666 84.1106 64.0666 84.1106 64.561C85.5937 65.0553 87.5712 65.0553 89.5487 65.0553C90.0431 65.0553 90.5375 65.0553 90.5375 65.0553C91.5262 65.0553 93.0093 64.561 93.0093 63.5722C93.5037 62.5835 93.0093 61.1004 92.5149 59.6172C92.5149 58.1341 92.5149 56.651 92.0206 55.6623C91.5262 55.1679 91.0318 55.6623 90.5375 55.1679C89.5487 54.6735 90.0431 52.696 89.0543 51.2129V50.7186C87.5712 50.7186 85.0994 50.7186 83.6163 48.7411ZM91.5262 55.6623C92.0206 55.6623 92.0206 56.1566 92.5149 55.6623C92.5149 54.6735 92.5149 54.1792 92.5149 53.6848C92.5149 53.1904 91.5262 53.1904 91.0318 52.696C91.0318 53.6848 91.0318 54.6735 91.5262 55.6623ZM19.8424 60.606C19.348 61.1004 18.8536 62.0891 18.3593 63.0778C17.8649 64.0666 17.8649 64.5609 17.8649 66.0441C17.8649 66.5384 18.8537 67.5272 19.348 68.5159C20.8311 69.999 23.303 71.4822 26.2692 71.4822C28.2467 71.4822 30.7186 69.5047 31.2129 67.5272C31.2129 67.0328 31.7073 66.0441 31.7073 65.5497C31.7073 64.561 30.7186 63.0778 30.2242 62.5835C29.7298 61.5947 28.2467 61.1004 27.258 60.606C26.7636 60.606 26.2692 60.1116 26.2692 60.1116C25.7748 60.1116 24.7861 60.1116 24.2917 60.1116C21.8199 59.1229 20.3368 59.6172 19.8424 60.606ZM70.7626 60.606C69.7739 61.1004 69.2795 63.0778 68.7851 64.0666C68.2908 65.5497 69.2795 67.0328 69.7739 67.5272C71.257 69.0103 74.2232 70.4934 76.6951 70.4934C77.6838 70.4934 78.6726 69.999 79.1669 69.5047C80.1557 69.0103 81.1444 67.5272 81.6388 66.5384C82.1331 64.561 81.1444 63.0778 80.65 62.0891C79.6613 60.606 78.1782 60.1116 76.6951 59.1229C74.7176 58.6285 72.2457 59.6172 70.7626 60.606Z" fill="#12335F"/>
<path fill-rule="evenodd" clip-rule="evenodd" d="M83.6158 55.1684C82.627 55.6627 81.6383 55.1684 81.1439 55.1684C80.1552 55.1684 79.1664 55.1684 78.1777 55.1684C75.7058 55.1684 73.234 54.674 70.7621 55.1684C70.7621 55.1684 70.2677 55.1684 69.7734 54.674C69.7734 54.1796 69.7734 53.6852 69.7734 53.1909C69.7734 52.2021 69.7734 50.719 69.7734 49.7303C69.7734 48.2472 69.7734 45.7753 70.7621 45.7753C71.7509 45.7753 73.234 45.7753 74.2227 45.7753C75.2115 45.7753 76.6946 45.7753 77.6833 45.7753C77.6833 45.7753 78.1777 46.2697 78.6721 46.764C79.6608 48.2472 81.1439 50.2246 82.1326 51.7078C83.1214 52.6965 83.6158 53.6852 83.6158 55.1684ZM70.7621 46.2697C70.7621 46.764 70.2677 47.2584 70.7621 47.7528C71.2565 47.2584 71.2565 46.764 71.7509 46.2697C71.2565 46.2697 71.2565 46.2697 70.7621 46.2697ZM72.2452 46.2697C71.7509 47.2584 71.2565 48.2472 71.2565 49.2359C71.2565 48.2472 72.2452 47.2584 72.2452 46.2697ZM75.2115 46.2697C74.7171 46.764 74.2227 47.7528 73.7283 48.2472C73.234 48.7415 72.7396 49.7303 72.2452 50.2246C71.7509 51.2134 71.7509 52.2021 70.7621 53.1909C70.2677 53.1909 70.2677 53.1909 70.2677 52.6965C70.2677 52.2021 70.2677 52.2021 70.2677 52.2021C70.2677 51.7078 70.7621 51.2134 70.7621 50.719C70.7621 50.2246 71.2565 49.7303 71.2565 49.2359C70.7621 50.2246 69.7734 51.7078 69.7734 53.1909C70.2677 53.1909 70.7621 53.1909 71.2565 53.1909C72.7396 50.719 74.2227 48.2472 75.7058 45.7753C76.2002 46.2697 75.2115 46.2697 75.2115 46.2697ZM73.234 46.2697C72.7396 46.764 72.2452 47.7528 71.7509 48.2472C71.2565 48.7415 70.7621 49.7303 70.7621 50.2246C71.7509 49.2359 72.7396 47.7528 73.234 46.2697ZM76.6946 46.764C75.2115 48.7415 73.7283 51.7078 72.7396 54.1796H73.234C74.2227 51.7078 76.6946 49.2359 77.1889 46.764C76.6946 46.2697 76.6946 46.2697 76.6946 46.764ZM71.7509 51.2134C72.7396 49.7303 73.7283 47.7528 74.7171 46.2697C73.7283 48.2472 72.7396 49.7303 71.7509 51.2134ZM75.7058 51.7078C76.2002 50.719 76.6946 49.7303 77.1889 48.7415C77.6833 47.7528 78.1777 46.764 77.1889 46.2697C76.2002 48.7415 74.2227 50.719 73.234 53.1909C74.2227 53.1909 75.2115 53.1909 76.2002 53.6852C76.6946 52.2021 77.6833 51.2134 78.6721 49.7303C78.6721 49.2359 79.6608 48.7415 79.1664 48.2472C78.1777 49.2359 77.6833 50.719 76.6946 51.7078C76.6946 52.2021 76.6946 52.6965 76.2002 52.6965C76.6946 51.2134 77.6833 50.2246 78.1777 48.7415C78.1777 48.2472 78.6721 47.7528 78.1777 47.2584C77.6833 48.2472 77.1889 49.2359 76.6946 50.2246C76.2002 50.719 75.7058 51.7078 75.7058 52.2021C75.7058 52.2021 75.7058 52.6965 75.2115 52.6965C75.2115 52.6965 75.2115 52.2021 75.7058 51.7078ZM79.6608 49.7303C79.1664 50.719 78.1777 51.7078 77.6833 52.6965C78.6721 51.7078 79.1664 51.2134 79.6608 49.7303ZM77.6833 53.6852C77.1889 53.6852 77.1889 53.6852 77.1889 53.6852V54.1796C77.1889 54.1796 77.6833 54.1796 77.6833 53.6852C78.1777 53.6852 78.1777 53.6852 77.6833 53.6852C78.6721 52.6965 79.6608 51.7078 80.1552 50.719C79.1664 51.7078 78.1777 52.6965 77.6833 53.6852ZM78.1777 54.1796C78.6721 54.1796 78.6721 53.6852 78.6721 53.6852C79.1664 52.6965 80.1552 52.2021 80.6495 51.2134C80.6495 51.2134 80.6495 51.2134 80.1552 51.2134C79.6608 52.2021 78.6721 52.6965 78.1777 54.1796ZM79.1664 54.1796C79.6608 54.1796 79.6608 54.1796 80.1552 54.1796V53.6852C80.1552 53.6852 80.1552 53.6852 79.6608 53.6852C79.6608 53.1909 80.6495 52.2021 80.6495 51.7078C80.1552 52.2021 79.6608 53.1909 79.1664 54.1796ZM80.6495 53.1909C81.1439 53.1909 81.6383 52.6965 81.6383 51.7078C80.6495 52.2021 80.6495 52.6965 80.6495 53.1909ZM81.6383 53.6852H82.1326C82.1326 53.1909 82.1326 53.1909 82.1326 53.1909C82.1326 53.1909 82.1326 53.1909 81.6383 53.1909C81.1439 53.1909 81.6383 53.1909 81.6383 53.6852Z" fill="#12335F"/>
<path fill-rule="evenodd" clip-rule="evenodd" d="M75.7056 61.5926C77.6831 61.0982 79.1662 63.5701 79.1662 65.0532C79.1662 67.0307 77.1887 68.5138 75.2112 68.0195C74.2225 67.5251 73.2337 66.5363 72.7394 65.5476C72.245 63.5701 73.7281 62.087 75.7056 61.5926ZM74.2225 63.5701L74.7169 63.0757C74.2225 63.0757 74.2225 63.0757 74.2225 63.5701ZM75.7056 65.5476C76.2 65.0532 76.6943 64.0645 77.1887 63.0757C76.6943 64.0645 75.7056 64.5589 75.7056 65.5476ZM77.1887 63.0757C76.6943 64.0645 75.7056 65.0532 75.7056 66.5363C77.6831 67.0307 78.6718 65.0532 77.6831 63.5701C77.1887 64.0645 77.1887 65.0532 76.6943 65.5476C76.6943 65.0532 77.6831 64.0645 77.1887 63.0757ZM75.2112 65.0532C75.7056 64.5589 75.7056 64.0645 76.2 63.5701C75.7056 64.0645 74.7169 64.5589 75.2112 65.0532ZM74.7169 66.042C74.7169 65.5476 74.7169 65.5476 74.7169 66.042C74.2225 65.5476 74.2225 65.0532 74.2225 65.0532C74.2225 65.5476 74.7169 66.042 74.7169 66.042Z" fill="#12335F"/>
</svg>
