<svg width="24" height="24" viewBox="0 0 24 24" fill="none" xmlns="http://www.w3.org/2000/svg">
<path fill-rule="evenodd" clip-rule="evenodd" d="M20.5646 6.7505C20.696 6.31825 20.5646 6 19.9352 6H17.8571C17.3283 6 17.0844 6.27471 16.9522 6.57792C16.9522 6.57792 15.8953 9.10808 14.3983 10.7516C13.9138 11.2282 13.6937 11.3794 13.4293 11.3794C13.2971 11.3794 13.0984 11.2282 13.0984 10.7951V6.7505C13.0984 6.23117 12.9527 6 12.5125 6H9.24454C8.91442 6 8.71571 6.24067 8.71571 6.46946C8.71571 6.96108 9.46463 7.07508 9.54142 8.45892V11.4657C9.54142 12.1251 9.42029 12.2447 9.15587 12.2447C8.45129 12.2447 6.73733 9.70263 5.72004 6.79404C5.52292 6.228 5.32342 6 4.79221 6H2.7125C2.11875 6 2 6.27471 2 6.57792C2 7.11783 2.70458 9.8 5.28146 13.3475C6.99938 15.77 9.41792 17.0833 11.6211 17.0833C12.9424 17.0833 13.1055 16.792 13.1055 16.2893V14.4582C13.1055 13.8747 13.2306 13.7583 13.6494 13.7583C13.9581 13.7583 14.4862 13.9103 15.7196 15.078C17.1287 16.4627 17.3607 17.0833 18.154 17.0833H20.2321C20.8258 17.0833 21.1235 16.792 20.9525 16.2157C20.7641 15.6425 20.0912 14.8105 19.199 13.8233C18.7145 13.2612 17.9877 12.6555 17.7668 12.3523C17.4589 11.9636 17.5468 11.7902 17.7668 11.4443C17.7668 11.4443 20.3002 7.94037 20.5638 6.7505H20.5646Z" fill="#12335F"/>
</svg>
