<svg width="46" height="46" viewBox="0 0 46 46" fill="none" xmlns="http://www.w3.org/2000/svg">
<path d="M29.5507 17.1236C29.5507 17.1236 31.1233 16.5176 30.9922 17.9893C30.9486 18.5953 30.5554 20.7163 30.2496 23.0105L29.2012 29.8064C29.2012 29.8064 29.1139 30.8019 28.3275 30.9751C27.5412 31.1482 26.3618 30.3691 26.1433 30.1959C25.9686 30.0661 22.867 28.1182 21.7749 27.1659C21.4691 26.9062 21.1196 26.3868 21.8186 25.7808L26.4054 21.4522C26.9296 20.9328 27.4538 19.7208 25.2696 21.1925L19.1539 25.3046C19.1539 25.3046 18.4549 25.7375 17.1444 25.3479L14.305 24.4822C14.305 24.4822 13.2565 23.8329 15.0476 23.1836C19.416 21.1492 24.7891 19.0714 29.5507 17.1236Z" fill="#9B9B9B"/>
</svg>
